<svg viewBox="37 7 124 97" xmlns="http://www.w3.org/2000/svg" data-grip-x="52" data-grip-y="62" data-anchor-x="156" data-anchor-y="46"><g stroke="#14171d" stroke-width="4" stroke-linejoin="round" stroke-linecap="round"><path d="M52,52 L46,94 Q45,99 52,99 L68,99 Q75,99 73,92 L67,52 Z" fill="#2c323d"></path><rect x="42" y="28" width="74" height="32" rx="14" fill="#3d4452"></rect><path d="M52,28 L64,12 L80,26 Z" fill="#ff5a36"></path><path d="M72,60 Q70,76 84,76 Q98,76 96,60 L89,60 Q90,69 84,69 Q78,69 79,60 Z" fill="#2c323d"></path><rect x="112" y="36" width="20" height="16" rx="5" fill="#2c323d"></rect><path d="M130,26 L156,40 L156,52 L130,66 Z" fill="#586374"></path><circle cx="77" cy="44" r="10" fill="#ffb020"></circle><circle cx="77" cy="44" r="4" fill="#ff5a36"></circle></g></svg>