<svg viewBox="0 0 100 100" xmlns="http://www.w3.org/2000/svg"><defs><linearGradient id="bg" x1="0" y1="0" x2="1" y2="1"><stop offset="0" stop-color="#1a1d24"/><stop offset="1" stop-color="#0c0e12"/></linearGradient></defs><rect x="1" y="1" width="98" height="98" rx="22" fill="url(#bg)" stroke="#475064" stroke-width="1"/><g transform="translate(15,6.6) scale(0.70)"><g stroke-linejoin="round" stroke-linecap="round"><rect x="22" y="100" width="56" height="15" rx="7" fill="#2e333b" stroke="#2e333b" stroke-width="1.6"/><ellipse cx="50" cy="97" rx="22" ry="7" fill="#2e333b" stroke="#2e333b" stroke-width="1.6"/><path d="M34,100 Q32,78 44,66 L56,66 Q68,78 66,100 Z" fill="#2e333b" stroke="#2e333b" stroke-width="1.6"/><ellipse cx="50" cy="57" rx="13" ry="9.5" fill="#2e333b" stroke="#2e333b" stroke-width="1.6"/><ellipse cx="50" cy="37" rx="14.5" ry="16.5" fill="#2e333b" stroke="#2e333b" stroke-width="1.6"/><path d="M35,24 Q34,15 38,11 Q41,15 44,18 Q47,12 50,7 Q53,12 56,18 Q59,15 62,11 Q66,15 65,24 Q50,27.5 35,24 Z" fill="#2e333b" stroke="#2e333b" stroke-width="1.6"/></g><rect x="22" y="100" width="56" height="15" rx="7" fill="#efe7d6"/><ellipse cx="50" cy="97" rx="22" ry="7" fill="#efe7d6"/><path d="M34,100 Q32,78 44,66 L56,66 Q68,78 66,100 Z" fill="#efe7d6"/><ellipse cx="50" cy="57" rx="13" ry="9.5" fill="#efe7d6"/><ellipse cx="50" cy="37" rx="14.5" ry="16.5" fill="#efe7d6"/><path d="M35,24 Q34,15 38,11 Q41,15 44,18 Q47,12 50,7 Q53,12 56,18 Q59,15 62,11 Q66,15 65,24 Q50,27.5 35,24 Z" fill="#efe7d6"/><circle cx="38" cy="11" r="2.2" fill="#ff5a36"/><circle cx="50" cy="7.5" r="2.6" fill="#ff5a36"/><circle cx="62" cy="11" r="2.2" fill="#ff5a36"/><ellipse cx="43.5" cy="37" rx="3" ry="2.3" fill="#231a10"/><ellipse cx="56.5" cy="37" rx="3" ry="2.3" fill="#231a10"/><path d="M39,35.2 Q37,33.8 35.6,34.2" stroke="#231a10" stroke-width="1.1" fill="none" stroke-linecap="round"/><path d="M40,34.6 Q38.6,33.1 37.6,33" stroke="#231a10" stroke-width="1" fill="none" stroke-linecap="round"/><path d="M61,35.2 Q63,33.8 64.4,34.2" stroke="#231a10" stroke-width="1.1" fill="none" stroke-linecap="round"/><path d="M60,34.6 Q61.4,33.1 62.4,33" stroke="#231a10" stroke-width="1" fill="none" stroke-linecap="round"/><path d="M46,46 Q50,43.5 54,46 Q50,50 46,46 Z" fill="#ff5a36"/><path d="M46,46 Q50,47 54,46" stroke="#e6431f" stroke-width="0.8" fill="none"/><circle cx="41" cy="46" r="1" fill="#231a10"/></g></svg>