<svg viewBox="139.3 17.8 51.5 57.3" xmlns="http://www.w3.org/2000/svg" data-anchor-x="142" data-anchor-y="46"><path d="M186.2,50.2L159.9,49.6L177.1,65.6L156.1,52.5L161.4,70.4L151.9,52.3L148.7,64.8L149.4,49.9L143.9,55.4L149.0,47.5L144.6,48.7L149.4,46.2L145.1,45.3L149.2,45.3L144.0,40.7L149.0,43.5L145.2,32.3L150.3,40.9L153.7,23.7L153.7,39.2L168.8,22.3L158.1,40.4L182.6,32.5L160.8,44.6Z" fill="#ff5a36" stroke="#14171d" stroke-width="3" stroke-linejoin="round"></path><path d="M170.0,54.0L155.7,50.1L159.9,60.8L152.1,50.6L150.0,58.1L149.8,48.8L146.2,51.5L149.5,46.9L146.6,47.0L149.6,45.9L146.4,44.1L149.4,44.6L146.6,38.8L150.2,42.6L152.2,32.5L153.0,41.2L163.1,32.1L156.6,42.6L171.6,41.2L157.9,46.6Z" fill="#ffb020"></path><circle cx="151.0" cy="46.0" r="3.6" fill="#ffd76b"></circle></svg>